<svg id="Bundesautobahn_5_number" xmlns="http://www.w3.org/2000/svg" width="80.5" height="48.42" viewBox="0 0 80.5 48.42">
  <rect id="Rectangle_1059" data-name="Rectangle 1059" width="80" height="47.92" rx="10" transform="translate(0.25 0.25)" fill="#fff" stroke="#000" stroke-width="0.5"/>
  <path id="Path_4073" data-name="Path 4073" d="M7,27.055V11.817q0-.8,1.2-1.2L43.491,5.04a3.045,3.045,0,0,1,.8-.04,3.045,3.045,0,0,1,.8.04l35.288,5.574q1.2.4,1.2,1.2V42.293q0,.8-1.2,1.2L45.1,49.07a3.045,3.045,0,0,1-.8.04,3.045,3.045,0,0,1-.8-.04L8.2,43.5Q7,43.1,7,42.293" transform="translate(-4.043 -2.845)" fill="#295267"/>
  <path id="number" d="M81.361,41.362V26.77H95.713v3.87H85.006v6.091a6.735,6.735,0,0,1,4.331-1.48,6.377,6.377,0,0,1,2.767.589,6.648,6.648,0,0,1,2.045,1.391,8.089,8.089,0,0,1,1.6,2.611,17.114,17.114,0,0,1,.521,4.776,14.941,14.941,0,0,1-.4,4.038A7.472,7.472,0,0,1,94.59,51.1a8.769,8.769,0,0,1-2.326,1.965,6.638,6.638,0,0,1-3.529.906,8.96,8.96,0,0,1-5.025-1.612q-2.426-1.608-2.851-5.385h3.87a3.607,3.607,0,0,0,3.886,3.148q2.807,0,3.288-1.945a16,16,0,0,0,.481-3.854,8.1,8.1,0,0,0-.762-3.721q-.762-1.48-3.136-1.48a3.834,3.834,0,0,0-3.481,2.242Z" transform="translate(-48.285 -15.885)" fill="#fff" fill-rule="evenodd"/>
</svg>
